{"title":"The Girl With The Dragon Tattoo 2011 Cam XviD Feel-Free","uid":6962898,"size":1355576933,"categoryP":"video","categoryS":"movies","magnet":"?xt=urn:btih:e1a49b6972981355b1f764eb532e31dced359d4e&amp;dn=The+Girl+With+The+Dragon+Tattoo+2011+Cam+XviD+Feel-Free&amp;tr=udp%3A%2F%2Ftracker.openbittorrent.com%3A80&amp;tr=udp%3A%2F%2Fopen.demonii.com%3A1337&amp;tr=udp%3A%2F%2Ftracker.coppersurfer.tk%3A6969&amp;tr=udp%3A%2F%2Fexodus.desync.com%3A6969","seeders":0,"leechers":1,"uploader":"hiest","files":-1,"time":1326823432,"description":"Full Credits To Feel Free :)\n\n ######## ######## ######## ##          ######## ########  ######## ######## \n ##       ##       ##       ##          ##       ##     ## ##       ##       \n ##       ##       ##       ##          ##       ##     ## ##       ##       \n ######   ######   ######   ##          ######   ########  ######   ######   \n ##       ##       ##       ##          ##       ##   ##   ##       ##       \n ##       ##       ##       ##          ##       ##    ##  ##       ##       \n ##       ######## ######## ########    ##       ##     ## ######## ########\n\nGenre: Crime | Drama | Mystery \n Language:English\n IMDb:http://www.imdb.com/title/tt1568346/\n Source:INFERNO Thanks!\n\n Format : AVI\n Format/Info : Audio Video Interleave\n File size : 1.26 GiB\n Duration : 2h 32mn\n Overall bit rate : 1 182 Kbps\n\n Video\n ID : 0\n Format : MPEG-4 Visual\n Format profile : Advanced Simple@L5\n Format settings, BVOP : Yes\n Format settings, QPel : No\n Format settings, GMC : No warppoints\n Format settings, Matrix : Default (H.263)\n Codec ID : XVID\n Codec ID/Hint : XviD\n Duration : 2h 32mn\n Bit rate : 1 010 Kbps\n Width : 640 pixels\n Height : 296 pixels\n Display aspect ratio : 2.2:1\n Frame rate : 29.970 fps\n Color space : YUV\n Chroma subsampling : 4:2:0\n Bit depth : 8 bits\n Scan type : Progressive\n Bits/(Pixel*Frame) : 0.178\n Stream size : 1.08 GiB (85%)\n Writing library : XviD 1.2.1 (UTC 2008-12-04)\n\n Audio\n ID : 1\n Format : AC-3\n Format/Info : Audio Coding 3\n Mode extension : CM (complete main)\n Codec ID : 2000\n Duration : 2h 32mn\n Bit rate mode : Constant\n Bit rate : 160 Kbps\n Channel(s) : 2 channels\n Channel positions : Front: L R\n Sampling rate : 48.0 KHz\n Bit depth : 16 bits\n Stream size : 175 MiB (14%)\n Alignment : Aligned on interleaves\n Interleave, duration : 33 ms (1.00 video frame)\n Interleave, preload duration : 512 ms\n\n\n Plot:\n Journalist Mikael Blomkvist is aided in his search for a woman who has been missing for forty years by Lisbeth Salander, a young computer hacker\n\nFull Credits To Feel Free :)\n\n ######## ######## ######## ##          ######## ########  ######## ######## \n ##       ##       ##       ##          ##       ##     ## ##       ##       \n ##       ##       ##       ##          ##       ##     ## ##       ##       \n ######   ######   ######   ##          ######   ########  ######   ######   \n ##       ##       ##       ##          ##       ##   ##   ##       ##       \n ##       ##       ##       ##          ##       ##    ##  ##       ##       \n ##       ######## ######## ########    ##       ##     ## ######## ########","torrent":{"xt":"urn:btih:e1a49b6972981355b1f764eb532e31dced359d4e","amp;dn":"The+Girl+With+The+Dragon+Tattoo+2011+Cam+XviD+Feel-Free","amp;tr":["udp%3A%2F%2Ftracker.openbittorrent.com%3A80","udp%3A%2F%2Fopen.demonii.com%3A1337","udp%3A%2F%2Ftracker.coppersurfer.tk%3A6969","udp%3A%2F%2Fexodus.desync.com%3A6969"],"infoHash":"e1a49b6972981355b1f764eb532e31dced359d4e","infoHashBuffer":{"type":"Buffer","data":[225,164,155,105,114,152,19,85,177,247,100,235,83,46,49,220,237,53,157,78]},"announce":[],"urlList":[]}}